<svg xmlns="http://www.w3.org/2000/svg" viewBox="0 0 290.14 67.16"><defs><style>.a{fill:#454a58;}</style></defs><title>HK logo_vector</title><path class="a" d="M108.28,33.69c0,5.18,0,10.35,0,15.53,0,1.59-.43,2.31-2.16,2.27-7-.17-5.67.93-5.8-5.64,0-2.55-.06-5.11,0-7.66,0-1.4-.31-2.08-1.88-2-3.12.09-6.25.09-9.37,0-1.45,0-1.83.55-1.8,1.89.06,3.68,0,7.37,0,11.05,0,1.69-.44,2.44-2.27,2.39-6.74-.19-5.6,1-5.65-5.55-.07-9.15,0-18.29-.06-27.44,0-2.06.63-2.68,2.67-2.64,5.28.09,5.28,0,5.28,5.33,0,2.34.06,4.68,0,7,0,1.43.53,1.86,1.88,1.83,3-.06,6-.08,9,0,1.62.05,2.29-.43,2.22-2.16-.12-3.33,0-6.67,0-10,0-1.46.52-2,2-2,7.25.14,5.81-1,5.93,5.68.07,4,0,8.08,0,12.12Z" transform="translate(-0.63 -0.65)"/><path class="a" d="M215,32.05c3.45-4.76,7-9.47,10.33-14.29a3.87,3.87,0,0,1,3.88-1.92c1.66.13,3.34,0,5.54,0a27.83,27.83,0,0,1-1.42,2.44c-3.2,4.34-6.38,8.69-9.67,13a2,2,0,0,0-.05,2.93c3.55,4.87,7,9.84,10.43,14.78.43.61.77,1.28,1.46,2.42-3.1,0-5.69.08-8.26-.06-.54,0-1.13-.79-1.52-1.34-3.15-4.38-6.25-8.79-9.37-13.19-.47-.66-1-1.3-1.85-2.48,0,5.26-.11,9.84,0,14.42.08,2.19-.64,2.82-2.78,2.75-6-.2-5.12.75-5.15-5.26,0-9.15,0-18.3,0-27.45,0-2.9,0-2.94,3-2.9,5.64.08,4.86-.85,4.92,5,0,3.67,0,7.34,0,11Z" transform="translate(-0.63 -0.65)"/><path class="a" d="M140,37.79a47.31,47.31,0,0,1-.84,5.22c-1.7,6.18-7,9.45-14.19,8.86-6.33-.52-10.37-4.42-11-10.92a25.24,25.24,0,0,1,.24-7.37c1.41-6.7,7-10.25,14.45-9.58,6.57.58,10.65,5,11.11,12.06,0,.57,0,1.14,0,1.7Zm-18.7.57a26,26,0,0,0,.46,3.92c.7,2.86,2.4,4.06,5.21,4,2.63-.08,4.48-1.4,4.85-4.15a31.65,31.65,0,0,0,.08-7.78c-.4-3.42-2.19-4.76-5.41-4.67-2.9.08-4.57,1.74-5,5C121.37,35.74,121.37,36.8,121.29,38.36Z" transform="translate(-0.63 -0.65)"/><path class="a" d="M186,44.63c1.09,4,.49,5.3-3.05,6.37a19.7,19.7,0,0,1-12.15,0,9.77,9.77,0,0,1-6-5.09,17.69,17.69,0,0,1,.12-16c2.36-4.7,8.09-6.88,14-5.65,5.12,1.07,7.89,4.42,8.36,10.09S187.69,40,182,40c-3.48,0-7,0-10.44,0a2.07,2.07,0,0,0-.56.23c0,2.91,1.22,5,4,5.35a43.71,43.71,0,0,0,8.38-.33A13.79,13.79,0,0,0,186,44.63ZM171,34.89a13.57,13.57,0,0,0,1.43.14c2.2,0,4.41.07,6.6-.09.39,0,1.05-1,1-1.56a4.15,4.15,0,0,0-4.61-4C172.55,29.61,170.91,31.6,171,34.89Z" transform="translate(-0.63 -0.65)"/><path class="a" d="M245.7,40c.3,3.56,1.58,5.45,4.51,5.7a48.52,48.52,0,0,0,8.4-.5A13.61,13.61,0,0,0,261,44.6c1.06,4.14.46,5.3-3.16,6.4a20.48,20.48,0,0,1-10.31.49c-5.1-1.05-8.16-4.16-9.14-9.18A19.66,19.66,0,0,1,239,31.62c2.63-7.19,13-10.22,19.1-5.55,3.18,2.43,4,6,4.15,9.64.2,5.18.29,4.25-4,4.31C254.06,40.07,250,40,245.7,40Zm.2-5c2.57,0,5.18.07,7.78-.07.4,0,1.07-1,1.07-1.53a4,4,0,0,0-4.72-4C247.35,29.69,245.56,32,245.9,35Z" transform="translate(-0.63 -0.65)"/><path class="a" d="M264.77,24.45c2.49,0,4.61-.13,6.69.08.58.06,1.24,1,1.53,1.75,1.75,4.18,3.4,8.39,5.3,13.13,1.43-3.76,2.68-7,3.92-10.31,1.89-5,1.88-5,7.24-4.68a13,13,0,0,1,1.32.24c-.21.81-.34,1.54-.59,2.23-3.06,8.24-6.12,16.48-9.24,24.7-2.06,5.44-6,7.79-11.64,7.12-2.26-.27-3.76-3.48-2.36-5.25.29-.37,1.14-.41,1.73-.41,4.91,0,6.74-2.76,4.81-7.3-2.71-6.4-5.37-12.82-8.05-19.23C265.22,26,265.1,25.47,264.77,24.45Z" transform="translate(-0.63 -0.65)"/><path class="a" d="M146.15,38.33c0-2.06,0-4.12,0-6.17,0-1.22-.22-2.06-1.72-2.06-2.51,0-1.64-2-1.75-3.3s-.06-2.54,1.78-2.39c1.37.12,1.64-.64,1.69-1.82.2-4.47.23-4.38,4.73-4.43,2.06,0,2.91.68,2.6,2.71,0,.28,0,.58,0,.85-.35,2.15.49,2.86,2.68,2.73,3.06-.18,4.44,1.94,3.19,4.79-.21.49-1.23.82-1.9.86-4,.25-4,.21-4,4.19,0,2.77,0,5.53,0,8.3s.65,3.27,3.45,3.3c1.09,0,2.68-1,2.89,1.3.27,2.93-.13,3.77-2.49,4.24a16.14,16.14,0,0,1-3.17.37c-5.3,0-7.71-2.26-8-7.52-.1-2,0-4,0-6Z" transform="translate(-0.63 -0.65)"/><path class="a" d="M192.46,32.33c0-5.53,0-11.06,0-16.58,0-1.52.35-2.11,2-2.11,5.41,0,5.42-.06,5.42,5.37q0,14.67,0,29.34c0,3.11,0,3.13-3,3.11-5,0-4.32.52-4.35-4.25C192.43,42.25,192.46,37.29,192.46,32.33Z" transform="translate(-0.63 -0.65)"/><path class="a" d="M.63,67.81V.65H67.78V67.81ZM64.76,3.68H3.65V53.15h61l.11-49.47ZM28.05,22.59h12.2V7.93h11V48.22h-11V31.77H28.05V48.22h-11V7.93h11Z" transform="translate(-0.63 -0.65)"/></svg>